<?xml version="1.0" encoding="UTF-8" standalone="no"?>
<!DOCTYPE svg PUBLIC "-//W3C//DTD SVG 1.1//EN"
 "http://www.w3.org/Graphics/SVG/1.1/DTD/svg11.dtd">
<!-- Generated by graphviz version 2.47.0 (20210316.0004)
 -->
<!-- Title: dependencies Pages: 1 -->
<svg width="504pt" height="284pt"
 viewBox="0.00 0.00 504.00 284.00" xmlns="http://www.w3.org/2000/svg" xmlns:xlink="http://www.w3.org/1999/xlink">
<g id="graph0" class="graph" transform="scale(1 1) rotate(0) translate(4 280)">
<title>dependencies</title>
<polygon fill="white" stroke="transparent" points="-4,4 -4,-280 500,-280 500,4 -4,4"/>
<text text-anchor="start" x="227.01" y="-42.4" font-family="sans-serif" font-weight="bold" font-size="14.00">Legend</text>
<polygon fill="#ffffb3" stroke="transparent" points="14,-10 14,-30 34,-30 34,-10 14,-10"/>
<text text-anchor="start" x="37.63" y="-15.4" font-family="sans-serif" font-size="14.00"> &#160;Declarations</text>
<polygon fill="#8dd3c7" stroke="transparent" points="127,-10 127,-30 147,-30 147,-10 127,-10"/>
<text text-anchor="start" x="150.73" y="-15.4" font-family="sans-serif" font-size="14.00"> &#160;Module</text>
<polygon fill="#80b1d3" stroke="transparent" points="213,-10 213,-30 233,-30 233,-10 213,-10"/>
<text text-anchor="start" x="236.78" y="-15.4" font-family="sans-serif" font-size="14.00"> &#160;Bootstrap</text>
<polygon fill="#fdb462" stroke="transparent" points="310,-10 310,-30 330,-30 330,-10 310,-10"/>
<text text-anchor="start" x="333.67" y="-15.4" font-family="sans-serif" font-size="14.00"> &#160;Providers</text>
<polygon fill="#fb8072" stroke="transparent" points="406,-10 406,-30 426,-30 426,-10 406,-10"/>
<text text-anchor="start" x="429.73" y="-15.4" font-family="sans-serif" font-size="14.00"> &#160;Exports</text>
<g id="clust1" class="cluster">
<title>cluster_UiModule</title>
<polygon fill="none" stroke="black" stroke-dasharray="1,5" points="85,-70 85,-268 411,-268 411,-70 85,-70"/>
</g>
<g id="clust2" class="cluster">
<title>cluster_UiModule_declarations</title>
<polygon fill="none" stroke="black" points="96,-78 96,-130 400,-130 400,-78 96,-78"/>
</g>
<g id="clust6" class="cluster">
<title>cluster_UiModule_exports</title>
<polygon fill="none" stroke="black" points="93,-208 93,-260 403,-260 403,-208 93,-208"/>
</g>
<!-- UiButtonComponent -->
<g id="node1" class="node">
<title>UiButtonComponent</title>
<polygon fill="#ffffb3" stroke="black" points="391.95,-122 258.05,-122 258.05,-86 391.95,-86 391.95,-122"/>
<text text-anchor="middle" x="325" y="-99.8" font-family="Times,serif" font-size="14.00">UiButtonComponent</text>
</g>
<!-- UiModule -->
<g id="node3" class="node">
<title>UiModule</title>
<polygon fill="#8dd3c7" stroke="black" points="209.55,-187 206.55,-191 185.55,-191 182.55,-187 136.45,-187 136.45,-151 209.55,-151 209.55,-187"/>
<text text-anchor="middle" x="173" y="-164.8" font-family="Times,serif" font-size="14.00">UiModule</text>
</g>
<!-- UiButtonComponent&#45;&gt;UiModule -->
<g id="edge1" class="edge">
<title>UiButtonComponent&#45;&gt;UiModule</title>
<path fill="none" stroke="black" d="M347.32,-122.02C347.32,-139.37 347.32,-163 347.32,-163 347.32,-163 219.97,-163 219.97,-163"/>
<polygon fill="black" stroke="black" points="219.97,-159.5 209.97,-163 219.97,-166.5 219.97,-159.5"/>
</g>
<!-- UiHeaderComponent -->
<g id="node2" class="node">
<title>UiHeaderComponent</title>
<polygon fill="#ffffb3" stroke="black" points="239.74,-122 104.26,-122 104.26,-86 239.74,-86 239.74,-122"/>
<text text-anchor="middle" x="172" y="-99.8" font-family="Times,serif" font-size="14.00">UiHeaderComponent</text>
</g>
<!-- UiHeaderComponent&#45;&gt;UiModule -->
<g id="edge2" class="edge">
<title>UiHeaderComponent&#45;&gt;UiModule</title>
<path fill="none" stroke="black" d="M173,-122.11C173,-122.11 173,-140.99 173,-140.99"/>
<polygon fill="black" stroke="black" points="169.5,-140.99 173,-150.99 176.5,-140.99 169.5,-140.99"/>
</g>
<!-- UiButtonComponent  -->
<g id="node4" class="node">
<title>UiButtonComponent </title>
<polygon fill="#fb8072" stroke="black" points="395.45,-252 258.55,-252 258.55,-216 395.45,-216 395.45,-252"/>
<text text-anchor="middle" x="327" y="-229.8" font-family="Times,serif" font-size="14.00">UiButtonComponent </text>
</g>
<!-- UiModule&#45;&gt;UiButtonComponent  -->
<g id="edge3" class="edge">
<title>UiModule&#45;&gt;UiButtonComponent </title>
<path fill="none" stroke="black" stroke-dasharray="5,2" d="M209.88,-175C248.3,-175 302.93,-175 302.93,-175 302.93,-175 302.93,-205.98 302.93,-205.98"/>
<polygon fill="black" stroke="black" points="299.43,-205.98 302.93,-215.98 306.43,-205.98 299.43,-205.98"/>
</g>
<!-- UiHeaderComponent  -->
<g id="node5" class="node">
<title>UiHeaderComponent </title>
<polygon fill="#fb8072" stroke="black" points="240.74,-252 101.26,-252 101.26,-216 240.74,-216 240.74,-252"/>
<text text-anchor="middle" x="171" y="-229.8" font-family="Times,serif" font-size="14.00">UiHeaderComponent </text>
</g>
<!-- UiModule&#45;&gt;UiHeaderComponent  -->
<g id="edge4" class="edge">
<title>UiModule&#45;&gt;UiHeaderComponent </title>
<path fill="none" stroke="black" stroke-dasharray="5,2" d="M173,-187.11C173,-187.11 173,-205.99 173,-205.99"/>
<polygon fill="black" stroke="black" points="169.5,-205.99 173,-215.99 176.5,-205.99 169.5,-205.99"/>
</g>
</g>
</svg>
