<?xml version="1.0" encoding="UTF-8" standalone="no"?>
<!DOCTYPE svg PUBLIC "-//W3C//DTD SVG 1.1//EN"
 "http://www.w3.org/Graphics/SVG/1.1/DTD/svg11.dtd">
<!-- Generated by graphviz version 2.47.0 (20210316.0004)
 -->
<!-- Title: dependencies Pages: 1 -->
<svg width="523pt" height="284pt"
 viewBox="0.00 0.00 523.00 284.00" xmlns="http://www.w3.org/2000/svg" xmlns:xlink="http://www.w3.org/1999/xlink">
<g id="graph0" class="graph" transform="scale(1 1) rotate(0) translate(4 280)">
<title>dependencies</title>
<polygon fill="white" stroke="transparent" points="-4,4 -4,-280 519,-280 519,4 -4,4"/>
<text text-anchor="start" x="236.51" y="-42.4" font-family="sans-serif" font-weight="bold" font-size="14.00">Legend</text>
<polygon fill="#ffffb3" stroke="transparent" points="23.5,-10 23.5,-30 43.5,-30 43.5,-10 23.5,-10"/>
<text text-anchor="start" x="47.13" y="-15.4" font-family="sans-serif" font-size="14.00"> &#160;Declarations</text>
<polygon fill="#8dd3c7" stroke="transparent" points="136.5,-10 136.5,-30 156.5,-30 156.5,-10 136.5,-10"/>
<text text-anchor="start" x="160.23" y="-15.4" font-family="sans-serif" font-size="14.00"> &#160;Module</text>
<polygon fill="#80b1d3" stroke="transparent" points="222.5,-10 222.5,-30 242.5,-30 242.5,-10 222.5,-10"/>
<text text-anchor="start" x="246.28" y="-15.4" font-family="sans-serif" font-size="14.00"> &#160;Bootstrap</text>
<polygon fill="#fdb462" stroke="transparent" points="319.5,-10 319.5,-30 339.5,-30 339.5,-10 319.5,-10"/>
<text text-anchor="start" x="343.17" y="-15.4" font-family="sans-serif" font-size="14.00"> &#160;Providers</text>
<polygon fill="#fb8072" stroke="transparent" points="415.5,-10 415.5,-30 435.5,-30 435.5,-10 415.5,-10"/>
<text text-anchor="start" x="439.23" y="-15.4" font-family="sans-serif" font-size="14.00"> &#160;Exports</text>
<g id="clust1" class="cluster">
<title>cluster_PageModule</title>
<polygon fill="none" stroke="black" stroke-dasharray="1,5" points="8,-70 8,-268 507,-268 507,-70 8,-70"/>
</g>
<g id="clust2" class="cluster">
<title>cluster_PageModule_declarations</title>
<polygon fill="none" stroke="black" points="375,-78 375,-130 499,-130 499,-78 375,-78"/>
</g>
<g id="clust4" class="cluster">
<title>cluster_PageModule_imports</title>
<polygon fill="none" stroke="black" points="16,-78 16,-130 367,-130 367,-78 16,-78"/>
</g>
<g id="clust5" class="cluster">
<title>cluster_PageModule_exports</title>
<polygon fill="none" stroke="black" points="189,-208 189,-260 317,-260 317,-208 189,-208"/>
</g>
<!-- PageComponent -->
<g id="node1" class="node">
<title>PageComponent</title>
<polygon fill="#ffffb3" stroke="black" points="491.05,-122 382.95,-122 382.95,-86 491.05,-86 491.05,-122"/>
<text text-anchor="middle" x="437" y="-99.8" font-family="Times,serif" font-size="14.00">PageComponent</text>
</g>
<!-- PageModule -->
<g id="node2" class="node">
<title>PageModule</title>
<polygon fill="#8dd3c7" stroke="black" points="296.26,-187 293.26,-191 272.26,-191 269.26,-187 209.74,-187 209.74,-151 296.26,-151 296.26,-187"/>
<text text-anchor="middle" x="253" y="-164.8" font-family="Times,serif" font-size="14.00">PageModule</text>
</g>
<!-- PageComponent&#45;&gt;PageModule -->
<g id="edge1" class="edge">
<title>PageComponent&#45;&gt;PageModule</title>
<path fill="none" stroke="black" d="M437,-122.11C437,-141.34 437,-169 437,-169 437,-169 306.61,-169 306.61,-169"/>
<polygon fill="black" stroke="black" points="306.61,-165.5 296.61,-169 306.61,-172.5 306.61,-165.5"/>
</g>
<!-- PageComponent  -->
<g id="node6" class="node">
<title>PageComponent </title>
<polygon fill="#fb8072" stroke="black" points="309.04,-252 196.96,-252 196.96,-216 309.04,-216 309.04,-252"/>
<text text-anchor="middle" x="253" y="-229.8" font-family="Times,serif" font-size="14.00">PageComponent </text>
</g>
<!-- PageModule&#45;&gt;PageComponent  -->
<g id="edge5" class="edge">
<title>PageModule&#45;&gt;PageComponent </title>
<path fill="none" stroke="black" stroke-dasharray="5,2" d="M253,-187.11C253,-187.11 253,-205.99 253,-205.99"/>
<polygon fill="black" stroke="black" points="249.5,-205.99 253,-215.99 256.5,-205.99 249.5,-205.99"/>
</g>
<!-- LoginModule -->
<g id="node3" class="node">
<title>LoginModule</title>
<polygon fill="#8dd3c7" stroke="black" points="359.49,-122 356.49,-126 335.49,-126 332.49,-122 266.51,-122 266.51,-86 359.49,-86 359.49,-122"/>
<text text-anchor="middle" x="313" y="-99.8" font-family="Times,serif" font-size="14.00">LoginModule</text>
</g>
<!-- LoginModule&#45;&gt;PageModule -->
<g id="edge2" class="edge">
<title>LoginModule&#45;&gt;PageModule</title>
<path fill="none" stroke="black" d="M281.44,-122.11C281.44,-122.11 281.44,-140.99 281.44,-140.99"/>
<polygon fill="black" stroke="black" points="277.94,-140.99 281.44,-150.99 284.94,-140.99 277.94,-140.99"/>
</g>
<!-- MessageModule -->
<g id="node4" class="node">
<title>MessageModule</title>
<polygon fill="#8dd3c7" stroke="black" points="248.03,-122 245.03,-126 224.03,-126 221.03,-122 139.97,-122 139.97,-86 248.03,-86 248.03,-122"/>
<text text-anchor="middle" x="194" y="-99.8" font-family="Times,serif" font-size="14.00">MessageModule</text>
</g>
<!-- MessageModule&#45;&gt;PageModule -->
<g id="edge3" class="edge">
<title>MessageModule&#45;&gt;PageModule</title>
<path fill="none" stroke="black" d="M228.94,-122.11C228.94,-122.11 228.94,-140.99 228.94,-140.99"/>
<polygon fill="black" stroke="black" points="225.44,-140.99 228.94,-150.99 232.44,-140.99 225.44,-140.99"/>
</g>
<!-- SharedModule -->
<g id="node5" class="node">
<title>SharedModule</title>
<polygon fill="#8dd3c7" stroke="black" points="122.42,-122 119.42,-126 98.42,-126 95.42,-122 23.58,-122 23.58,-86 122.42,-86 122.42,-122"/>
<text text-anchor="middle" x="73" y="-99.8" font-family="Times,serif" font-size="14.00">SharedModule</text>
</g>
<!-- SharedModule&#45;&gt;PageModule -->
<g id="edge4" class="edge">
<title>SharedModule&#45;&gt;PageModule</title>
<path fill="none" stroke="black" d="M73,-122.11C73,-141.34 73,-169 73,-169 73,-169 199.43,-169 199.43,-169"/>
<polygon fill="black" stroke="black" points="199.43,-172.5 209.43,-169 199.43,-165.5 199.43,-172.5"/>
</g>
</g>
</svg>
