<?xml version="1.0" encoding="UTF-8" standalone="no"?>
<!DOCTYPE svg PUBLIC "-//W3C//DTD SVG 1.1//EN"
 "http://www.w3.org/Graphics/SVG/1.1/DTD/svg11.dtd">
<!-- Generated by graphviz version 2.47.0 (20210316.0004)
 -->
<!-- Title: dependencies Pages: 1 -->
<svg width="576pt" height="284pt"
 viewBox="0.00 0.00 576.00 284.00" xmlns="http://www.w3.org/2000/svg" xmlns:xlink="http://www.w3.org/1999/xlink">
<g id="graph0" class="graph" transform="scale(1 1) rotate(0) translate(4 280)">
<title>dependencies</title>
<polygon fill="white" stroke="transparent" points="-4,4 -4,-280 572,-280 572,4 -4,4"/>
<text text-anchor="start" x="263.01" y="-42.4" font-family="sans-serif" font-weight="bold" font-size="14.00">Legend</text>
<polygon fill="#ffffb3" stroke="transparent" points="50,-10 50,-30 70,-30 70,-10 50,-10"/>
<text text-anchor="start" x="73.63" y="-15.4" font-family="sans-serif" font-size="14.00"> &#160;Declarations</text>
<polygon fill="#8dd3c7" stroke="transparent" points="163,-10 163,-30 183,-30 183,-10 163,-10"/>
<text text-anchor="start" x="186.73" y="-15.4" font-family="sans-serif" font-size="14.00"> &#160;Module</text>
<polygon fill="#80b1d3" stroke="transparent" points="249,-10 249,-30 269,-30 269,-10 249,-10"/>
<text text-anchor="start" x="272.78" y="-15.4" font-family="sans-serif" font-size="14.00"> &#160;Bootstrap</text>
<polygon fill="#fdb462" stroke="transparent" points="346,-10 346,-30 366,-30 366,-10 346,-10"/>
<text text-anchor="start" x="369.67" y="-15.4" font-family="sans-serif" font-size="14.00"> &#160;Providers</text>
<polygon fill="#fb8072" stroke="transparent" points="442,-10 442,-30 462,-30 462,-10 442,-10"/>
<text text-anchor="start" x="465.73" y="-15.4" font-family="sans-serif" font-size="14.00"> &#160;Exports</text>
<g id="clust1" class="cluster">
<title>cluster_MessageModule</title>
<polygon fill="none" stroke="black" stroke-dasharray="1,5" points="8,-70 8,-268 560,-268 560,-70 8,-70"/>
</g>
<g id="clust2" class="cluster">
<title>cluster_MessageModule_declarations</title>
<polygon fill="none" stroke="black" points="22,-78 22,-130 548,-130 548,-78 22,-78"/>
</g>
<g id="clust7" class="cluster">
<title>cluster_MessageModule_exports</title>
<polygon fill="none" stroke="black" points="16,-208 16,-260 552,-260 552,-208 16,-208"/>
</g>
<!-- MessageEditorComponent -->
<g id="node1" class="node">
<title>MessageEditorComponent</title>
<polygon fill="#ffffb3" stroke="black" points="539.8,-122 374.2,-122 374.2,-86 539.8,-86 539.8,-122"/>
<text text-anchor="middle" x="457" y="-99.8" font-family="Times,serif" font-size="14.00">MessageEditorComponent</text>
</g>
<!-- MessageModule -->
<g id="node4" class="node">
<title>MessageModule</title>
<polygon fill="#8dd3c7" stroke="black" points="332.03,-187 329.03,-191 308.03,-191 305.03,-187 223.97,-187 223.97,-151 332.03,-151 332.03,-187"/>
<text text-anchor="middle" x="278" y="-164.8" font-family="Times,serif" font-size="14.00">MessageModule</text>
</g>
<!-- MessageEditorComponent&#45;&gt;MessageModule -->
<g id="edge1" class="edge">
<title>MessageEditorComponent&#45;&gt;MessageModule</title>
<path fill="none" stroke="black" d="M484.97,-122.02C484.97,-139.37 484.97,-163 484.97,-163 484.97,-163 342.11,-163 342.11,-163"/>
<polygon fill="black" stroke="black" points="342.11,-159.5 332.11,-163 342.11,-166.5 342.11,-159.5"/>
</g>
<!-- MessageItemComponent -->
<g id="node2" class="node">
<title>MessageItemComponent</title>
<polygon fill="#ffffb3" stroke="black" points="355.97,-122 200.03,-122 200.03,-86 355.97,-86 355.97,-122"/>
<text text-anchor="middle" x="278" y="-99.8" font-family="Times,serif" font-size="14.00">MessageItemComponent</text>
</g>
<!-- MessageItemComponent&#45;&gt;MessageModule -->
<g id="edge2" class="edge">
<title>MessageItemComponent&#45;&gt;MessageModule</title>
<path fill="none" stroke="black" d="M278,-122.11C278,-122.11 278,-140.99 278,-140.99"/>
<polygon fill="black" stroke="black" points="274.5,-140.99 278,-150.99 281.5,-140.99 274.5,-140.99"/>
</g>
<!-- MessageListComponent -->
<g id="node3" class="node">
<title>MessageListComponent</title>
<polygon fill="#ffffb3" stroke="black" points="182.09,-122 29.91,-122 29.91,-86 182.09,-86 182.09,-122"/>
<text text-anchor="middle" x="106" y="-99.8" font-family="Times,serif" font-size="14.00">MessageListComponent</text>
</g>
<!-- MessageListComponent&#45;&gt;MessageModule -->
<g id="edge3" class="edge">
<title>MessageListComponent&#45;&gt;MessageModule</title>
<path fill="none" stroke="black" d="M129.85,-122.02C129.85,-139.37 129.85,-163 129.85,-163 129.85,-163 213.67,-163 213.67,-163"/>
<polygon fill="black" stroke="black" points="213.67,-166.5 223.67,-163 213.67,-159.5 213.67,-166.5"/>
</g>
<!-- MessageEditorComponent  -->
<g id="node5" class="node">
<title>MessageEditorComponent </title>
<polygon fill="#fb8072" stroke="black" points="544.3,-252 375.7,-252 375.7,-216 544.3,-216 544.3,-252"/>
<text text-anchor="middle" x="460" y="-229.8" font-family="Times,serif" font-size="14.00">MessageEditorComponent </text>
</g>
<!-- MessageModule&#45;&gt;MessageEditorComponent  -->
<g id="edge4" class="edge">
<title>MessageModule&#45;&gt;MessageEditorComponent </title>
<path fill="none" stroke="black" stroke-dasharray="5,2" d="M332.12,-175C375.89,-175 430.28,-175 430.28,-175 430.28,-175 430.28,-205.98 430.28,-205.98"/>
<polygon fill="black" stroke="black" points="426.78,-205.98 430.28,-215.98 433.78,-205.98 426.78,-205.98"/>
</g>
<!-- MessageItemComponent  -->
<g id="node6" class="node">
<title>MessageItemComponent </title>
<polygon fill="#fb8072" stroke="black" points="357.97,-252 198.03,-252 198.03,-216 357.97,-216 357.97,-252"/>
<text text-anchor="middle" x="278" y="-229.8" font-family="Times,serif" font-size="14.00">MessageItemComponent </text>
</g>
<!-- MessageModule&#45;&gt;MessageItemComponent  -->
<g id="edge5" class="edge">
<title>MessageModule&#45;&gt;MessageItemComponent </title>
<path fill="none" stroke="black" stroke-dasharray="5,2" d="M278,-187.11C278,-187.11 278,-205.99 278,-205.99"/>
<polygon fill="black" stroke="black" points="274.5,-205.99 278,-215.99 281.5,-205.99 274.5,-205.99"/>
</g>
<!-- MessageListComponent  -->
<g id="node7" class="node">
<title>MessageListComponent </title>
<polygon fill="#fb8072" stroke="black" points="179.59,-252 24.41,-252 24.41,-216 179.59,-216 179.59,-252"/>
<text text-anchor="middle" x="102" y="-229.8" font-family="Times,serif" font-size="14.00">MessageListComponent </text>
</g>
<!-- MessageModule&#45;&gt;MessageListComponent  -->
<g id="edge6" class="edge">
<title>MessageModule&#45;&gt;MessageListComponent </title>
<path fill="none" stroke="black" stroke-dasharray="5,2" d="M223.87,-175C165.22,-175 79.9,-175 79.9,-175 79.9,-175 79.9,-205.98 79.9,-205.98"/>
<polygon fill="black" stroke="black" points="76.4,-205.98 79.9,-215.98 83.4,-205.98 76.4,-205.98"/>
</g>
</g>
</svg>
