<?xml version="1.0" encoding="UTF-8" standalone="no"?>
<!DOCTYPE svg PUBLIC "-//W3C//DTD SVG 1.1//EN"
 "http://www.w3.org/Graphics/SVG/1.1/DTD/svg11.dtd">
<!-- Generated by graphviz version 2.47.0 (20210316.0004)
 -->
<!-- Title: dependencies Pages: 1 -->
<svg width="1796pt" height="428pt"
 viewBox="0.00 0.00 1796.00 428.00" xmlns="http://www.w3.org/2000/svg" xmlns:xlink="http://www.w3.org/1999/xlink">
<g id="graph0" class="graph" transform="scale(1 1) rotate(0) translate(4 424)">
<title>dependencies</title>
<polygon fill="white" stroke="transparent" points="-4,4 -4,-424 1792,-424 1792,4 -4,4"/>
<text text-anchor="start" x="873.01" y="-42.4" font-family="sans-serif" font-weight="bold" font-size="14.00">Legend</text>
<polygon fill="#ffffb3" stroke="transparent" points="660,-10 660,-30 680,-30 680,-10 660,-10"/>
<text text-anchor="start" x="683.63" y="-15.4" font-family="sans-serif" font-size="14.00"> &#160;Declarations</text>
<polygon fill="#8dd3c7" stroke="transparent" points="773,-10 773,-30 793,-30 793,-10 773,-10"/>
<text text-anchor="start" x="796.73" y="-15.4" font-family="sans-serif" font-size="14.00"> &#160;Module</text>
<polygon fill="#80b1d3" stroke="transparent" points="859,-10 859,-30 879,-30 879,-10 859,-10"/>
<text text-anchor="start" x="882.78" y="-15.4" font-family="sans-serif" font-size="14.00"> &#160;Bootstrap</text>
<polygon fill="#fdb462" stroke="transparent" points="956,-10 956,-30 976,-30 976,-10 956,-10"/>
<text text-anchor="start" x="979.67" y="-15.4" font-family="sans-serif" font-size="14.00"> &#160;Providers</text>
<polygon fill="#fb8072" stroke="transparent" points="1052,-10 1052,-30 1072,-30 1072,-10 1052,-10"/>
<text text-anchor="start" x="1075.73" y="-15.4" font-family="sans-serif" font-size="14.00"> &#160;Exports</text>
<g id="clust1" class="cluster">
<title>cluster_AppModule</title>
<polygon fill="none" stroke="black" stroke-dasharray="1,5" points="177,-214 177,-412 677,-412 677,-214 177,-214"/>
</g>
<g id="clust2" class="cluster">
<title>cluster_AppModule_declarations</title>
<polygon fill="none" stroke="black" points="547,-222 547,-274 669,-274 669,-222 547,-222"/>
</g>
<g id="clust4" class="cluster">
<title>cluster_AppModule_imports</title>
<polygon fill="none" stroke="black" points="185,-222 185,-274 539,-274 539,-222 185,-222"/>
</g>
<g id="clust6" class="cluster">
<title>cluster_AppModule_bootstrap</title>
<polygon fill="none" stroke="black" points="373,-352 373,-404 497,-404 497,-352 373,-352"/>
</g>
<g id="clust14" class="cluster">
<title>cluster_CoreModule</title>
<polygon fill="none" stroke="black" stroke-dasharray="1,5" points="414,-138 414,-206 728,-206 728,-138 414,-138"/>
</g>
<g id="clust19" class="cluster">
<title>cluster_CoreModule_providers</title>
<polygon fill="none" stroke="black" points="422,-146 422,-198 720,-198 720,-146 422,-146"/>
</g>
<g id="clust20" class="cluster">
<title>cluster_LoginModule</title>
<polygon fill="none" stroke="black" stroke-dasharray="1,5" points="736,-70 736,-282 886,-282 886,-70 736,-70"/>
</g>
<g id="clust21" class="cluster">
<title>cluster_LoginModule_declarations</title>
<polygon fill="none" stroke="black" points="745,-78 745,-130 875,-130 875,-78 745,-78"/>
</g>
<g id="clust24" class="cluster">
<title>cluster_LoginModule_exports</title>
<polygon fill="none" stroke="black" points="744,-222 744,-274 878,-274 878,-222 744,-222"/>
</g>
<g id="clust27" class="cluster">
<title>cluster_MessageModule</title>
<polygon fill="none" stroke="black" stroke-dasharray="1,5" points="894,-70 894,-282 1446,-282 1446,-70 894,-70"/>
</g>
<g id="clust28" class="cluster">
<title>cluster_MessageModule_declarations</title>
<polygon fill="none" stroke="black" points="907,-78 907,-130 1433,-130 1433,-78 907,-78"/>
</g>
<g id="clust33" class="cluster">
<title>cluster_MessageModule_exports</title>
<polygon fill="none" stroke="black" points="902,-222 902,-274 1438,-274 1438,-222 902,-222"/>
</g>
<g id="clust36" class="cluster">
<title>cluster_PageModule</title>
<polygon fill="none" stroke="black" stroke-dasharray="1,5" points="8,-138 8,-206 406,-206 406,-138 8,-138"/>
</g>
<g id="clust37" class="cluster">
<title>cluster_PageModule_declarations</title>
<polygon fill="none" stroke="black" points="138,-146 138,-198 262,-198 262,-146 138,-146"/>
</g>
<g id="clust39" class="cluster">
<title>cluster_PageModule_imports</title>
<polygon fill="none" stroke="black" points="16,-146 16,-198 130,-198 130,-146 16,-146"/>
</g>
<g id="clust40" class="cluster">
<title>cluster_PageModule_exports</title>
<polygon fill="none" stroke="black" points="270,-146 270,-198 398,-198 398,-146 270,-146"/>
</g>
<g id="clust43" class="cluster">
<title>cluster_SharedModule</title>
<polygon fill="none" stroke="black" stroke-dasharray="1,5" points="18,-214 18,-282 128,-282 128,-214 18,-214"/>
</g>
<g id="clust46" class="cluster">
<title>cluster_SharedModule_exports</title>
<polygon fill="none" stroke="black" points="26,-222 26,-274 120,-274 120,-222 26,-222"/>
</g>
<g id="clust49" class="cluster">
<title>cluster_UiModule</title>
<polygon fill="none" stroke="black" stroke-dasharray="1,5" points="1454,-70 1454,-282 1780,-282 1780,-70 1454,-70"/>
</g>
<g id="clust50" class="cluster">
<title>cluster_UiModule_declarations</title>
<polygon fill="none" stroke="black" points="1465,-78 1465,-130 1769,-130 1769,-78 1465,-78"/>
</g>
<g id="clust54" class="cluster">
<title>cluster_UiModule_exports</title>
<polygon fill="none" stroke="black" points="1462,-222 1462,-274 1772,-274 1772,-222 1462,-222"/>
</g>
<!-- AppComponent -->
<g id="node1" class="node">
<title>AppComponent</title>
<polygon fill="#ffffb3" stroke="black" points="660.94,-266 555.06,-266 555.06,-230 660.94,-230 660.94,-266"/>
<text text-anchor="middle" x="608" y="-243.8" font-family="Times,serif" font-size="14.00">AppComponent</text>
</g>
<!-- AppModule -->
<g id="node2" class="node">
<title>AppModule</title>
<polygon fill="#8dd3c7" stroke="black" points="476.66,-331 473.66,-335 452.66,-335 449.66,-331 393.34,-331 393.34,-295 476.66,-295 476.66,-331"/>
<text text-anchor="middle" x="435" y="-308.8" font-family="Times,serif" font-size="14.00">AppModule</text>
</g>
<!-- AppComponent&#45;&gt;AppModule -->
<g id="edge1" class="edge">
<title>AppComponent&#45;&gt;AppModule</title>
<path fill="none" stroke="black" d="M608,-266.11C608,-285.34 608,-313 608,-313 608,-313 486.88,-313 486.88,-313"/>
<polygon fill="black" stroke="black" points="486.88,-309.5 476.88,-313 486.88,-316.5 486.88,-309.5"/>
</g>
<!-- AppComponent  -->
<g id="node6" class="node">
<title>AppComponent </title>
<polygon fill="#80b1d3" stroke="black" points="489.44,-396 380.56,-396 380.56,-360 489.44,-360 489.44,-396"/>
<text text-anchor="middle" x="435" y="-373.8" font-family="Times,serif" font-size="14.00">AppComponent </text>
</g>
<!-- AppModule&#45;&gt;AppComponent  -->
<g id="edge5" class="edge">
<title>AppModule&#45;&gt;AppComponent </title>
<path fill="none" stroke="black" stroke-dasharray="1,5" d="M435,-331.11C435,-331.11 435,-349.99 435,-349.99"/>
<polygon fill="black" stroke="black" points="431.5,-349.99 435,-359.99 438.5,-349.99 431.5,-349.99"/>
</g>
<!-- AppRoutingModule -->
<g id="node3" class="node">
<title>AppRoutingModule</title>
<polygon fill="#8dd3c7" stroke="black" points="321.27,-266 318.27,-270 297.27,-270 294.27,-266 192.73,-266 192.73,-230 321.27,-230 321.27,-266"/>
<text text-anchor="middle" x="257" y="-243.8" font-family="Times,serif" font-size="14.00">AppRoutingModule</text>
</g>
<!-- AppRoutingModule&#45;&gt;AppModule -->
<g id="edge2" class="edge">
<title>AppRoutingModule&#45;&gt;AppModule</title>
<path fill="none" stroke="black" d="M257,-266.11C257,-285.34 257,-313 257,-313 257,-313 383.27,-313 383.27,-313"/>
<polygon fill="black" stroke="black" points="383.27,-316.5 393.27,-313 383.27,-309.5 383.27,-316.5"/>
</g>
<!-- CoreModule -->
<g id="node4" class="node">
<title>CoreModule</title>
<polygon fill="#8dd3c7" stroke="black" points="531.26,-266 528.26,-270 507.26,-270 504.26,-266 444.74,-266 444.74,-230 531.26,-230 531.26,-266"/>
<text text-anchor="middle" x="488" y="-243.8" font-family="Times,serif" font-size="14.00">CoreModule</text>
</g>
<!-- CoreModule&#45;&gt;AppModule -->
<g id="edge3" class="edge">
<title>CoreModule&#45;&gt;AppModule</title>
<path fill="none" stroke="black" d="M460.72,-266.11C460.72,-266.11 460.72,-284.99 460.72,-284.99"/>
<polygon fill="black" stroke="black" points="457.22,-284.99 460.72,-294.99 464.22,-284.99 457.22,-284.99"/>
</g>
<!-- PageModule -->
<g id="node5" class="node">
<title>PageModule</title>
<polygon fill="#8dd3c7" stroke="black" points="426.26,-266 423.26,-270 402.26,-270 399.26,-266 339.74,-266 339.74,-230 426.26,-230 426.26,-266"/>
<text text-anchor="middle" x="383" y="-243.8" font-family="Times,serif" font-size="14.00">PageModule</text>
</g>
<!-- PageModule&#45;&gt;AppModule -->
<g id="edge4" class="edge">
<title>PageModule&#45;&gt;AppModule</title>
<path fill="none" stroke="black" d="M409.78,-266.11C409.78,-266.11 409.78,-284.99 409.78,-284.99"/>
<polygon fill="black" stroke="black" points="406.28,-284.99 409.78,-294.99 413.28,-284.99 406.28,-284.99"/>
</g>
<!-- PageComponent  -->
<g id="node21" class="node">
<title>PageComponent </title>
<polygon fill="#fb8072" stroke="black" points="390.04,-190 277.96,-190 277.96,-154 390.04,-154 390.04,-190"/>
<text text-anchor="middle" x="334" y="-167.8" font-family="Times,serif" font-size="14.00">PageComponent </text>
</g>
<!-- PageModule&#45;&gt;PageComponent  -->
<g id="edge20" class="edge">
<title>PageModule&#45;&gt;PageComponent </title>
<path fill="none" stroke="black" stroke-dasharray="5,2" d="M377.42,-229.99C377.42,-229.99 377.42,-200.15 377.42,-200.15"/>
<polygon fill="black" stroke="black" points="380.92,-200.15 377.42,-190.15 373.92,-200.15 380.92,-200.15"/>
</g>
<!-- MessageService -->
<g id="node7" class="node">
<title>MessageService</title>
<ellipse fill="#fdb462" stroke="black" cx="638" cy="-172" rx="73.55" ry="18"/>
<text text-anchor="middle" x="638" y="-167.8" font-family="Times,serif" font-size="14.00">MessageService</text>
</g>
<!-- MessageService&#45;&gt;CoreModule -->
<g id="edge6" class="edge">
<title>MessageService&#45;&gt;CoreModule</title>
<path fill="none" stroke="black" d="M564,-172C556.03,-172 550.75,-172 550.75,-172 550.75,-172 550.75,-248 550.75,-248 550.75,-248 541.58,-248 541.58,-248"/>
<polygon fill="black" stroke="black" points="541.58,-244.5 531.58,-248 541.58,-251.5 541.58,-244.5"/>
</g>
<!-- UserService -->
<g id="node8" class="node">
<title>UserService</title>
<ellipse fill="#fdb462" stroke="black" cx="488" cy="-172" rx="58.44" ry="18"/>
<text text-anchor="middle" x="488" y="-167.8" font-family="Times,serif" font-size="14.00">UserService</text>
</g>
<!-- UserService&#45;&gt;CoreModule -->
<g id="edge7" class="edge">
<title>UserService&#45;&gt;CoreModule</title>
<path fill="none" stroke="black" d="M488,-190.01C488,-190.01 488,-219.85 488,-219.85"/>
<polygon fill="black" stroke="black" points="484.5,-219.85 488,-229.85 491.5,-219.85 484.5,-219.85"/>
</g>
<!-- LoginComponent -->
<g id="node9" class="node">
<title>LoginComponent</title>
<polygon fill="#ffffb3" stroke="black" points="867.28,-122 752.72,-122 752.72,-86 867.28,-86 867.28,-122"/>
<text text-anchor="middle" x="810" y="-99.8" font-family="Times,serif" font-size="14.00">LoginComponent</text>
</g>
<!-- LoginModule -->
<g id="node10" class="node">
<title>LoginModule</title>
<polygon fill="#8dd3c7" stroke="black" points="856.49,-190 853.49,-194 832.49,-194 829.49,-190 763.51,-190 763.51,-154 856.49,-154 856.49,-190"/>
<text text-anchor="middle" x="810" y="-167.8" font-family="Times,serif" font-size="14.00">LoginModule</text>
</g>
<!-- LoginComponent&#45;&gt;LoginModule -->
<g id="edge8" class="edge">
<title>LoginComponent&#45;&gt;LoginModule</title>
<path fill="none" stroke="black" d="M810,-122.22C810,-122.22 810,-143.73 810,-143.73"/>
<polygon fill="black" stroke="black" points="806.5,-143.73 810,-153.73 813.5,-143.73 806.5,-143.73"/>
</g>
<!-- LoginModule&#45;&gt;PageModule -->
<g id="edge17" class="edge">
<title>LoginModule&#45;&gt;PageModule</title>
<path fill="none" stroke="black" d="M794.5,-190.06C794.5,-194.49 794.5,-198 794.5,-198 794.5,-198 402.14,-198 402.14,-198 402.14,-198 402.14,-219.95 402.14,-219.95"/>
<polygon fill="black" stroke="black" points="398.64,-219.95 402.14,-229.95 405.64,-219.95 398.64,-219.95"/>
</g>
<!-- LoginComponent  -->
<g id="node11" class="node">
<title>LoginComponent </title>
<polygon fill="#fb8072" stroke="black" points="870.28,-266 751.72,-266 751.72,-230 870.28,-230 870.28,-266"/>
<text text-anchor="middle" x="811" y="-243.8" font-family="Times,serif" font-size="14.00">LoginComponent </text>
</g>
<!-- LoginModule&#45;&gt;LoginComponent  -->
<g id="edge9" class="edge">
<title>LoginModule&#45;&gt;LoginComponent </title>
<path fill="none" stroke="black" stroke-dasharray="5,2" d="M825.5,-190.01C825.5,-190.01 825.5,-219.85 825.5,-219.85"/>
<polygon fill="black" stroke="black" points="822,-219.85 825.5,-229.85 829,-219.85 822,-219.85"/>
</g>
<!-- MessageEditorComponent -->
<g id="node12" class="node">
<title>MessageEditorComponent</title>
<polygon fill="#ffffb3" stroke="black" points="1424.8,-122 1259.2,-122 1259.2,-86 1424.8,-86 1424.8,-122"/>
<text text-anchor="middle" x="1342" y="-99.8" font-family="Times,serif" font-size="14.00">MessageEditorComponent</text>
</g>
<!-- MessageModule -->
<g id="node15" class="node">
<title>MessageModule</title>
<polygon fill="#8dd3c7" stroke="black" points="1217.03,-190 1214.03,-194 1193.03,-194 1190.03,-190 1108.97,-190 1108.97,-154 1217.03,-154 1217.03,-190"/>
<text text-anchor="middle" x="1163" y="-167.8" font-family="Times,serif" font-size="14.00">MessageModule</text>
</g>
<!-- MessageEditorComponent&#45;&gt;MessageModule -->
<g id="edge10" class="edge">
<title>MessageEditorComponent&#45;&gt;MessageModule</title>
<path fill="none" stroke="black" d="M1264.81,-122.27C1264.81,-140.56 1264.81,-166 1264.81,-166 1264.81,-166 1227.18,-166 1227.18,-166"/>
<polygon fill="black" stroke="black" points="1227.18,-162.5 1217.18,-166 1227.18,-169.5 1227.18,-162.5"/>
</g>
<!-- MessageItemComponent -->
<g id="node13" class="node">
<title>MessageItemComponent</title>
<polygon fill="#ffffb3" stroke="black" points="1240.97,-122 1085.03,-122 1085.03,-86 1240.97,-86 1240.97,-122"/>
<text text-anchor="middle" x="1163" y="-99.8" font-family="Times,serif" font-size="14.00">MessageItemComponent</text>
</g>
<!-- MessageItemComponent&#45;&gt;MessageModule -->
<g id="edge11" class="edge">
<title>MessageItemComponent&#45;&gt;MessageModule</title>
<path fill="none" stroke="black" d="M1163,-122.22C1163,-122.22 1163,-143.73 1163,-143.73"/>
<polygon fill="black" stroke="black" points="1159.5,-143.73 1163,-153.73 1166.5,-143.73 1159.5,-143.73"/>
</g>
<!-- MessageListComponent -->
<g id="node14" class="node">
<title>MessageListComponent</title>
<polygon fill="#ffffb3" stroke="black" points="1067.09,-122 914.91,-122 914.91,-86 1067.09,-86 1067.09,-122"/>
<text text-anchor="middle" x="991" y="-99.8" font-family="Times,serif" font-size="14.00">MessageListComponent</text>
</g>
<!-- MessageListComponent&#45;&gt;MessageModule -->
<g id="edge12" class="edge">
<title>MessageListComponent&#45;&gt;MessageModule</title>
<path fill="none" stroke="black" d="M991,-122.27C991,-140.56 991,-166 991,-166 991,-166 1098.58,-166 1098.58,-166"/>
<polygon fill="black" stroke="black" points="1098.58,-169.5 1108.58,-166 1098.58,-162.5 1098.58,-169.5"/>
</g>
<!-- MessageModule&#45;&gt;PageModule -->
<g id="edge18" class="edge">
<title>MessageModule&#45;&gt;PageModule</title>
<path fill="none" stroke="black" d="M1144.91,-190.19C1144.91,-198.28 1144.91,-206 1144.91,-206 1144.91,-206 414.26,-206 414.26,-206 414.26,-206 414.26,-219.94 414.26,-219.94"/>
<polygon fill="black" stroke="black" points="410.76,-219.94 414.26,-229.94 417.76,-219.94 410.76,-219.94"/>
</g>
<!-- MessageEditorComponent  -->
<g id="node16" class="node">
<title>MessageEditorComponent </title>
<polygon fill="#fb8072" stroke="black" points="1078.3,-266 909.7,-266 909.7,-230 1078.3,-230 1078.3,-266"/>
<text text-anchor="middle" x="994" y="-243.8" font-family="Times,serif" font-size="14.00">MessageEditorComponent </text>
</g>
<!-- MessageModule&#45;&gt;MessageEditorComponent  -->
<g id="edge13" class="edge">
<title>MessageModule&#45;&gt;MessageEditorComponent </title>
<path fill="none" stroke="black" stroke-dasharray="5,2" d="M1108.92,-178C1089.7,-178 1072.72,-178 1072.72,-178 1072.72,-178 1072.72,-219.97 1072.72,-219.97"/>
<polygon fill="black" stroke="black" points="1069.22,-219.97 1072.72,-229.97 1076.22,-219.97 1069.22,-219.97"/>
</g>
<!-- MessageItemComponent  -->
<g id="node17" class="node">
<title>MessageItemComponent </title>
<polygon fill="#fb8072" stroke="black" points="1429.97,-266 1270.03,-266 1270.03,-230 1429.97,-230 1429.97,-266"/>
<text text-anchor="middle" x="1350" y="-243.8" font-family="Times,serif" font-size="14.00">MessageItemComponent </text>
</g>
<!-- MessageModule&#45;&gt;MessageItemComponent  -->
<g id="edge14" class="edge">
<title>MessageModule&#45;&gt;MessageItemComponent </title>
<path fill="none" stroke="black" stroke-dasharray="5,2" d="M1217.35,-178C1271.76,-178 1347.46,-178 1347.46,-178 1347.46,-178 1347.46,-219.97 1347.46,-219.97"/>
<polygon fill="black" stroke="black" points="1343.96,-219.97 1347.46,-229.97 1350.96,-219.97 1343.96,-219.97"/>
</g>
<!-- MessageListComponent  -->
<g id="node18" class="node">
<title>MessageListComponent </title>
<polygon fill="#fb8072" stroke="black" points="1251.59,-266 1096.41,-266 1096.41,-230 1251.59,-230 1251.59,-266"/>
<text text-anchor="middle" x="1174" y="-243.8" font-family="Times,serif" font-size="14.00">MessageListComponent </text>
</g>
<!-- MessageModule&#45;&gt;MessageListComponent  -->
<g id="edge15" class="edge">
<title>MessageModule&#45;&gt;MessageListComponent </title>
<path fill="none" stroke="black" stroke-dasharray="5,2" d="M1181.09,-190.01C1181.09,-190.01 1181.09,-219.85 1181.09,-219.85"/>
<polygon fill="black" stroke="black" points="1177.59,-219.85 1181.09,-229.85 1184.59,-219.85 1177.59,-219.85"/>
</g>
<!-- PageComponent -->
<g id="node19" class="node">
<title>PageComponent</title>
<polygon fill="#ffffb3" stroke="black" points="254.05,-190 145.95,-190 145.95,-154 254.05,-154 254.05,-190"/>
<text text-anchor="middle" x="200" y="-167.8" font-family="Times,serif" font-size="14.00">PageComponent</text>
</g>
<!-- PageComponent&#45;&gt;PageModule -->
<g id="edge16" class="edge">
<title>PageComponent&#45;&gt;PageModule</title>
<path fill="none" stroke="black" d="M223.44,-190.06C223.44,-201.44 223.44,-214 223.44,-214 223.44,-214 364.82,-214 364.82,-214 364.82,-214 364.82,-219.81 364.82,-219.81"/>
<polygon fill="black" stroke="black" points="361.32,-219.81 364.82,-229.81 368.32,-219.81 361.32,-219.81"/>
</g>
<!-- SharedModule -->
<g id="node20" class="node">
<title>SharedModule</title>
<polygon fill="#8dd3c7" stroke="black" points="122.42,-190 119.42,-194 98.42,-194 95.42,-190 23.58,-190 23.58,-154 122.42,-154 122.42,-190"/>
<text text-anchor="middle" x="73" y="-167.8" font-family="Times,serif" font-size="14.00">SharedModule</text>
</g>
<!-- SharedModule&#45;&gt;PageModule -->
<g id="edge19" class="edge">
<title>SharedModule&#45;&gt;PageModule</title>
<path fill="none" stroke="black" d="M116.87,-190.05C116.87,-204.37 116.87,-222 116.87,-222 116.87,-222 352.22,-222 352.22,-222 352.22,-222 352.22,-222.79 352.22,-222.79"/>
<polygon fill="black" stroke="black" points="348.72,-219.94 352.22,-229.94 355.72,-219.94 348.72,-219.94"/>
</g>
<!-- UiModule  -->
<g id="node22" class="node">
<title>UiModule </title>
<polygon fill="#fb8072" stroke="black" points="111.55,-266 34.45,-266 34.45,-230 111.55,-230 111.55,-266"/>
<text text-anchor="middle" x="73" y="-243.8" font-family="Times,serif" font-size="14.00">UiModule </text>
</g>
<!-- SharedModule&#45;&gt;UiModule  -->
<g id="edge21" class="edge">
<title>SharedModule&#45;&gt;UiModule </title>
<path fill="none" stroke="black" stroke-dasharray="5,2" d="M73,-190.01C73,-190.01 73,-219.85 73,-219.85"/>
<polygon fill="black" stroke="black" points="69.5,-219.85 73,-229.85 76.5,-219.85 69.5,-219.85"/>
</g>
<!-- UiButtonComponent -->
<g id="node23" class="node">
<title>UiButtonComponent</title>
<polygon fill="#ffffb3" stroke="black" points="1760.95,-122 1627.05,-122 1627.05,-86 1760.95,-86 1760.95,-122"/>
<text text-anchor="middle" x="1694" y="-99.8" font-family="Times,serif" font-size="14.00">UiButtonComponent</text>
</g>
<!-- UiModule -->
<g id="node25" class="node">
<title>UiModule</title>
<polygon fill="#8dd3c7" stroke="black" points="1577.55,-190 1574.55,-194 1553.55,-194 1550.55,-190 1504.45,-190 1504.45,-154 1577.55,-154 1577.55,-190"/>
<text text-anchor="middle" x="1541" y="-167.8" font-family="Times,serif" font-size="14.00">UiModule</text>
</g>
<!-- UiButtonComponent&#45;&gt;UiModule -->
<g id="edge22" class="edge">
<title>UiButtonComponent&#45;&gt;UiModule</title>
<path fill="none" stroke="black" d="M1716.24,-122.27C1716.24,-140.56 1716.24,-166 1716.24,-166 1716.24,-166 1587.74,-166 1587.74,-166"/>
<polygon fill="black" stroke="black" points="1587.74,-162.5 1577.74,-166 1587.74,-169.5 1587.74,-162.5"/>
</g>
<!-- UiHeaderComponent -->
<g id="node24" class="node">
<title>UiHeaderComponent</title>
<polygon fill="#ffffb3" stroke="black" points="1608.74,-122 1473.26,-122 1473.26,-86 1608.74,-86 1608.74,-122"/>
<text text-anchor="middle" x="1541" y="-99.8" font-family="Times,serif" font-size="14.00">UiHeaderComponent</text>
</g>
<!-- UiHeaderComponent&#45;&gt;UiModule -->
<g id="edge23" class="edge">
<title>UiHeaderComponent&#45;&gt;UiModule</title>
<path fill="none" stroke="black" d="M1541,-122.22C1541,-122.22 1541,-143.73 1541,-143.73"/>
<polygon fill="black" stroke="black" points="1537.5,-143.73 1541,-153.73 1544.5,-143.73 1537.5,-143.73"/>
</g>
<!-- UiButtonComponent  -->
<g id="node26" class="node">
<title>UiButtonComponent </title>
<polygon fill="#fb8072" stroke="black" points="1606.45,-266 1469.55,-266 1469.55,-230 1606.45,-230 1606.45,-266"/>
<text text-anchor="middle" x="1538" y="-243.8" font-family="Times,serif" font-size="14.00">UiButtonComponent </text>
</g>
<!-- UiModule&#45;&gt;UiButtonComponent  -->
<g id="edge24" class="edge">
<title>UiModule&#45;&gt;UiButtonComponent </title>
<path fill="none" stroke="black" stroke-dasharray="5,2" d="M1541,-190.01C1541,-190.01 1541,-219.85 1541,-219.85"/>
<polygon fill="black" stroke="black" points="1537.5,-219.85 1541,-229.85 1544.5,-219.85 1537.5,-219.85"/>
</g>
<!-- UiHeaderComponent  -->
<g id="node27" class="node">
<title>UiHeaderComponent </title>
<polygon fill="#fb8072" stroke="black" points="1763.74,-266 1624.26,-266 1624.26,-230 1763.74,-230 1763.74,-266"/>
<text text-anchor="middle" x="1694" y="-243.8" font-family="Times,serif" font-size="14.00">UiHeaderComponent </text>
</g>
<!-- UiModule&#45;&gt;UiHeaderComponent  -->
<g id="edge25" class="edge">
<title>UiModule&#45;&gt;UiHeaderComponent </title>
<path fill="none" stroke="black" stroke-dasharray="5,2" d="M1577.77,-178C1616.45,-178 1671.76,-178 1671.76,-178 1671.76,-178 1671.76,-219.97 1671.76,-219.97"/>
<polygon fill="black" stroke="black" points="1668.26,-219.97 1671.76,-229.97 1675.26,-219.97 1668.26,-219.97"/>
</g>
</g>
</svg>
